# xmcd
#
# Track frame offsets:
#	150
#	13130
#	33212
#	50847
#	70874
#	85536
#	107110
#	126985
#	142908
#	159648
#	173443
#	189891
#	205179
#	220787
#	236677
#	252111
#	269727
#
# Disc length: 3893 seconds
#
# Revision: 1
# Processed by: cddbd v1.5.2PL0 Copyright (c) Steve Scherf et al.
# Submitted via: audiograbber 1.83.01
#
DISCID=ea0f3311
DTITLE=Sunset Ridge - A New Millenium Of new Country Music
DYEAR=2000
DGENRE=Country
TTITLE0=Sleeping Alone - Brian Jones
TTITLE1=Baby I Remember - Track  2
TTITLE2=Less Of Me - Brian Jones
TTITLE3=The Secret - Terri Williams
TTITLE4=What Would I Do - Garry Johnson
TTITLE5=High On Maintenance - Till Kahrs
TTITLE6=Lost In Time - Cindee Marklein
TTITLE7=Don´t Come Back Crying - Brian Jones
TTITLE8=I´ll Never Know - Till Kahrs
TTITLE9=One Way Out -Brian Jones -  
TTITLE10=Complete - Brian Jones
TTITLE11=Fire And Smoke - Brian Jones
TTITLE12=Let Me Hold You - Brian Jones
TTITLE13=If I Was Elvis - Brian Jones
TTITLE14=Slow Burn Woman - Till Kahrs
TTITLE15=Latw Blomer - Till Kahrs
TTITLE16=What It Mean To Love - Till Kahrs
EXTD=
EXTT0=
EXTT1=
EXTT2=
EXTT3=
EXTT4=
EXTT5=
EXTT6=
EXTT7=
EXTT8=
EXTT9=
EXTT10=
EXTT11=
EXTT12=
EXTT13=
EXTT14=
EXTT15=
EXTT16=
PLAYORDER=
